<svg version="1.1" id="Layer_1" xmlns="http://www.w3.org/2000/svg" xmlns:xlink="http://www.w3.org/1999/xlink" x="0px" y="0px"
	 width="100%" viewBox="0 0 1080 1080" enable-background="new 0 0 1080 1080" xml:space="preserve">
<path fill="#FFFFFF" opacity="1.000000" stroke="none" 
	d="
M520.000000,1081.000000 
	C346.686615,1081.000000 173.873215,1081.000000 1.029916,1081.000000 
	C1.029916,721.061462 1.029916,361.122986 1.029916,1.092229 
	C360.896942,1.092229 720.793945,1.092229 1080.845459,1.092229 
	C1080.845459,360.999939 1080.845459,720.999939 1080.845459,1081.000000 
	C894.122498,1081.000000 707.311218,1081.000000 520.000000,1081.000000 
M664.399414,342.995544 
	C655.238770,342.995544 646.066223,343.273987 636.922241,342.883698 
	C631.991943,342.673309 630.346741,343.866028 630.386719,349.139496 
	C630.639221,382.448975 630.510010,415.761292 630.527954,449.072693 
	C630.528931,450.866058 630.721069,452.659302 630.855957,455.004150 
	C642.510132,455.004150 653.794128,455.058899 665.077393,454.990540 
	C679.775146,454.901520 686.255493,448.830109 686.413086,434.145386 
	C686.663269,410.830078 686.647522,387.508545 686.420532,364.192780 
	C686.275940,349.336243 680.220276,343.524109 664.399414,342.995544 
M752.499939,451.080414 
	C756.788940,447.828735 758.907593,443.259521 758.939636,438.129456 
	C759.102478,411.999481 759.192322,385.865936 758.904968,359.738037 
	C758.810303,351.130524 753.578186,344.773987 745.127991,343.954956 
	C735.625000,343.033875 725.894592,343.254913 716.371826,344.143738 
	C709.447815,344.790009 705.400391,350.004669 704.041016,356.825073 
	C703.460022,359.740479 703.221375,362.768524 703.212463,365.746521 
	C703.145996,387.884644 703.150940,410.023163 703.208008,432.161346 
	C703.215271,434.975342 703.445923,437.824799 703.933105,440.594482 
	C705.212585,447.868225 709.372559,453.056122 716.766724,453.984009 
	C724.473083,454.950989 732.350708,455.094269 740.121155,454.784760 
	C744.097168,454.626434 748.002380,452.691132 752.499939,451.080414 
M812.972961,376.288208 
	C812.686829,378.983521 813.699890,380.300201 816.606995,380.191895 
	C820.597717,380.043182 824.600647,380.067078 828.593445,380.184052 
	C831.240234,380.261566 832.098877,379.077820 832.032776,376.570801 
	C831.892395,371.246002 832.162842,365.901001 831.820557,360.592896 
	C831.137024,349.992554 824.945007,343.807037 814.319336,343.178741 
	C808.344543,342.825470 802.333679,342.922455 796.342896,343.030579 
	C782.794128,343.275024 776.216980,349.855865 776.029358,363.439667 
	C775.891418,373.428436 776.212402,383.427124 775.905640,393.408386 
	C775.750671,398.450348 777.659851,400.873230 782.462891,402.307739 
	C792.727051,405.373352 802.828247,408.984985 812.963135,412.361969 
	C812.963135,418.678101 813.176575,424.512787 812.840332,430.315613 
	C812.731384,432.196716 811.671326,434.859650 810.210205,435.685242 
	C802.557312,440.009338 795.035706,435.574860 795.027649,427.056885 
	C795.026062,425.391785 794.912354,423.716949 795.052551,422.063751 
	C795.298096,419.167389 794.375305,417.722717 791.172363,417.896851 
	C787.353882,418.104462 783.510925,418.062012 779.687317,417.908844 
	C776.817505,417.793854 775.875488,419.022400 775.960449,421.762909 
	C776.115112,426.753784 775.874146,431.760406 776.123962,436.744110 
	C776.688721,448.013550 783.163879,454.396454 794.531250,454.891602 
	C799.850159,455.123291 805.185913,455.035950 810.513245,454.993195 
	C825.393982,454.873840 831.861633,448.497040 831.988220,433.739258 
	C832.071045,424.082336 831.831482,414.419708 832.079407,404.768433 
	C832.198364,400.137329 830.315369,397.830505 825.992676,396.499451 
	C815.711365,393.333557 805.532410,389.835022 795.495911,386.531372 
	C795.286011,385.902924 795.095337,385.595367 795.093201,385.286469 
	C795.057312,380.125732 795.019958,374.964783 795.033630,369.804016 
	C795.052429,362.693695 796.270630,361.520020 803.554932,361.463226 
	C812.031616,361.397156 812.963257,362.325714 812.972473,370.852600 
	C812.974060,372.351196 812.972717,373.849792 812.972961,376.288208 
M563.975769,361.245911 
	C557.291809,392.208069 550.607788,423.170197 543.735107,455.006500 
	C549.200928,455.006500 553.822693,454.748718 558.400513,455.086853 
	C562.161194,455.364594 563.351990,453.576294 563.879700,450.334564 
	C564.833862,444.473236 565.991882,438.645111 567.043152,432.920715 
	C575.660278,432.920715 583.746826,432.920715 591.993652,432.920715 
	C593.222839,439.179932 594.265015,445.240051 595.693115,451.207855 
	C596.032776,452.627502 597.590027,454.738098 598.712646,454.820404 
	C603.959778,455.204987 609.250793,454.991058 614.688538,454.991058 
	C614.757141,453.509857 614.968201,452.676086 614.805847,451.922821 
	C607.240112,416.815918 599.681763,381.707214 591.906067,346.646729 
	C591.583984,345.194641 589.266479,343.283478 587.751099,343.160706 
	C582.455261,342.731689 577.099609,343.114838 571.774414,342.945557 
	C568.899963,342.854156 567.534973,343.943451 567.020691,346.755005 
	C566.183533,351.332001 565.085327,355.861237 563.975769,361.245911 
M366.784454,343.822693 
	C362.142181,354.917084 357.499908,366.011505 352.610260,377.697052 
	C349.568085,369.971039 346.765839,362.910400 344.006042,355.833191 
	C338.940857,342.844116 338.951324,342.840057 325.179688,342.993530 
	C319.593597,343.055817 319.250824,343.527313 321.381927,348.693817 
	C327.458069,363.424194 333.458649,378.187500 339.743378,392.828674 
	C341.316956,396.494537 341.190338,399.531250 339.643616,403.163574 
	C333.141479,418.433167 326.925446,433.824799 320.633453,449.183563 
	C318.367462,454.714905 318.570862,454.974548 324.689362,455.004028 
	C327.686188,455.018463 330.695496,454.835449 333.676819,455.050964 
	C337.178314,455.304138 339.059540,454.020325 340.335480,450.601959 
	C344.150116,440.382019 348.345093,430.304047 352.744781,419.286011 
	C355.994202,427.390350 358.960144,434.734894 361.885590,442.095612 
	C367.078796,455.162262 367.068542,455.166351 381.162537,455.006500 
	C386.621307,454.944580 387.045471,454.352692 384.942566,449.250641 
	C378.491089,433.598358 372.079712,417.928497 365.456848,402.348755 
	C364.118225,399.199738 364.086182,396.606110 365.450897,393.432831 
	C371.679962,378.948761 377.643097,364.350311 383.695648,349.790405 
	C386.356812,343.388763 386.078247,342.960022 378.925659,343.009247 
	C375.107239,343.035492 371.289886,343.223450 366.784454,343.822693 
M422.625671,361.683258 
	C432.621674,361.682434 442.619873,361.784821 452.611359,361.572815 
	C454.164917,361.539856 456.941833,360.173737 457.017700,359.248962 
	C457.446869,354.017700 457.225189,348.733063 457.225189,342.998108 
	C454.859955,342.998108 453.224945,342.998108 451.589935,342.998108 
	C436.762543,342.998108 421.932159,343.163574 407.109589,342.896179 
	C402.723480,342.817047 401.385712,344.041473 401.427673,348.471436 
	C401.632812,370.127472 401.520050,391.786530 401.520142,413.444519 
	C401.520203,425.772919 401.525177,438.101318 401.518066,450.429718 
	C401.516663,452.857727 401.399475,455.070068 405.005066,455.046814 
	C421.331146,454.941376 437.658875,455.051758 453.983978,454.885712 
	C455.081451,454.874573 457.044952,453.276550 457.103455,452.324219 
	C457.416077,447.237976 457.250793,442.122345 457.250793,436.463806 
	C444.488617,436.463806 432.428528,436.463806 420.307739,436.463806 
	C420.307739,426.794159 420.307739,417.703339 420.307739,408.152618 
	C428.655609,408.152618 436.778748,408.287567 444.889038,408.024719 
	C446.301422,407.978943 448.762390,406.351044 448.854065,405.290894 
	C449.279938,400.365479 449.042542,395.382721 449.042542,389.791687 
	C439.132874,389.791687 429.750763,389.791687 420.075195,389.791687 
	C420.075195,380.677765 420.039307,372.197845 420.143250,363.719604 
	C420.151581,363.041077 421.124542,362.374359 422.625671,361.683258 
M214.829895,366.500000 
	C214.829895,392.663177 214.829880,418.826385 214.829910,444.989563 
	C214.829910,455.004547 214.830215,455.050598 224.838440,454.991547 
	C234.873413,454.932343 233.814514,456.410004 233.851715,445.923615 
	C233.885178,436.488953 233.858749,427.054077 233.858749,417.273682 
	C240.507080,417.273682 246.515778,417.549500 252.490204,417.214478 
	C263.825256,416.578949 269.904633,411.161987 270.449402,399.871948 
	C271.082855,386.744354 271.094208,373.535828 270.420380,360.411469 
	C269.836639,349.041656 263.340759,343.405396 251.843887,343.114288 
	C240.852280,342.835999 229.847992,343.095001 218.851624,342.944977 
	C215.802582,342.903381 214.708328,343.971497 214.784653,347.003632 
	C214.939758,353.165558 214.830322,359.334167 214.829895,366.500000 
M483.585022,455.006500 
	C494.079498,455.006500 504.573944,455.006531 515.068420,455.006531 
	C529.409363,455.006531 529.306091,455.008881 528.976929,440.788544 
	C528.899658,437.452209 527.707703,436.445648 524.551880,436.492126 
	C515.891663,436.619659 507.228333,436.550476 498.566376,436.519348 
	C496.830536,436.513092 495.095398,436.330872 493.218994,436.221588 
	C493.218994,409.455872 493.218933,383.307861 493.218933,357.159821 
	C493.218903,342.700592 493.219696,342.830353 478.904968,342.907227 
	C475.067139,342.927856 474.107635,344.327545 474.117462,347.897522 
	C474.211456,382.045868 474.221680,416.194702 474.107239,450.342926 
	C474.094360,454.182343 475.519287,455.476776 479.120911,455.028748 
	C480.269196,454.885925 481.450226,455.006470 483.585022,455.006500 
M287.823029,453.695160 
	C292.306610,454.134094 296.801819,454.480072 301.270416,455.038910 
	C305.476959,455.565002 306.704803,453.829712 306.665283,449.702057 
	C306.485016,430.874115 306.586731,412.043427 306.586639,393.213745 
	C306.586578,378.050018 306.671204,362.885071 306.458984,347.724304 
	C306.436768,346.137726 304.777985,343.322388 303.673981,343.216888 
	C298.585419,342.730499 293.424377,343.002380 287.591156,343.002380 
	C287.591156,379.948975 287.591156,416.387238 287.823029,453.695160 
z"/>
<path fill="#020202" opacity="1.000000" stroke="none" 
	d="
M664.880432,342.995789 
	C680.220276,343.524109 686.275940,349.336243 686.420532,364.192780 
	C686.647522,387.508545 686.663269,410.830078 686.413086,434.145386 
	C686.255493,448.830109 679.775146,454.901520 665.077393,454.990540 
	C653.794128,455.058899 642.510132,455.004150 630.855957,455.004150 
	C630.721069,452.659302 630.528931,450.866058 630.527954,449.072693 
	C630.510010,415.761292 630.639221,382.448975 630.386719,349.139496 
	C630.346741,343.866028 631.991943,342.673309 636.922241,342.883698 
	C646.066223,343.273987 655.238770,342.995544 664.880432,342.995789 
M654.590820,361.458282 
	C653.011108,361.544067 651.431396,361.629822 649.815674,361.717529 
	C649.815674,386.856720 649.815674,411.463226 649.815674,436.539612 
	C653.520630,436.539612 656.989868,436.594879 660.456726,436.527557 
	C666.784668,436.404755 667.985779,435.194305 667.995361,428.801361 
	C668.022888,410.471039 668.005676,392.140656 668.005798,373.810303 
	C668.005859,361.458801 668.005676,361.458801 654.590820,361.458282 
z"/>
<path fill="#030303" opacity="1.000000" stroke="none" 
	d="
M752.219788,451.319672 
	C748.002380,452.691132 744.097168,454.626434 740.121155,454.784760 
	C732.350708,455.094269 724.473083,454.950989 716.766724,453.984009 
	C709.372559,453.056122 705.212585,447.868225 703.933105,440.594482 
	C703.445923,437.824799 703.215271,434.975342 703.208008,432.161346 
	C703.150940,410.023163 703.145996,387.884644 703.212463,365.746521 
	C703.221375,362.768524 703.460022,359.740479 704.041016,356.825073 
	C705.400391,350.004669 709.447815,344.790009 716.371826,344.143738 
	C725.894592,343.254913 735.625000,343.033875 745.127991,343.954956 
	C753.578186,344.773987 758.810303,351.130524 758.904968,359.738037 
	C759.192322,385.865936 759.102478,411.999481 758.939636,438.129456 
	C758.907593,443.259521 756.788940,447.828735 752.219788,451.319672 
M741.125916,385.500183 
	C741.125916,381.006500 741.126038,376.512817 741.125854,372.019135 
	C741.125488,361.184174 740.874146,360.939117 729.865479,361.038361 
	C729.699036,361.039856 729.532593,361.036469 729.366211,361.039215 
	C723.407959,361.137970 721.946594,362.492126 721.935669,368.348938 
	C721.897461,388.820129 721.896912,409.291473 721.936401,429.762634 
	C721.947388,435.473358 723.351379,436.831848 728.943237,436.955322 
	C730.440369,436.988373 731.939026,436.973694 733.436768,436.958710 
	C739.810120,436.895050 741.095459,435.695557 741.112854,429.439789 
	C741.152710,415.126648 741.125732,400.813324 741.125916,385.500183 
z"/>
<path fill="#020202" opacity="1.000000" stroke="none" 
	d="
M812.972900,375.818298 
	C812.972717,373.849792 812.974060,372.351196 812.972473,370.852600 
	C812.963257,362.325714 812.031616,361.397156 803.554932,361.463226 
	C796.270630,361.520020 795.052429,362.693695 795.033630,369.804016 
	C795.019958,374.964783 795.057312,380.125732 795.093201,385.286469 
	C795.095337,385.595367 795.286011,385.902924 795.495911,386.531372 
	C805.532410,389.835022 815.711365,393.333557 825.992676,396.499451 
	C830.315369,397.830505 832.198364,400.137329 832.079407,404.768433 
	C831.831482,414.419708 832.071045,424.082336 831.988220,433.739258 
	C831.861633,448.497040 825.393982,454.873840 810.513245,454.993195 
	C805.185913,455.035950 799.850159,455.123291 794.531250,454.891602 
	C783.163879,454.396454 776.688721,448.013550 776.123962,436.744110 
	C775.874146,431.760406 776.115112,426.753784 775.960449,421.762909 
	C775.875488,419.022400 776.817505,417.793854 779.687317,417.908844 
	C783.510925,418.062012 787.353882,418.104462 791.172363,417.896851 
	C794.375305,417.722717 795.298096,419.167389 795.052551,422.063751 
	C794.912354,423.716949 795.026062,425.391785 795.027649,427.056885 
	C795.035706,435.574860 802.557312,440.009338 810.210205,435.685242 
	C811.671326,434.859650 812.731384,432.196716 812.840332,430.315613 
	C813.176575,424.512787 812.963135,418.678101 812.963135,412.361969 
	C802.828247,408.984985 792.727051,405.373352 782.462891,402.307739 
	C777.659851,400.873230 775.750671,398.450348 775.905640,393.408386 
	C776.212402,383.427124 775.891418,373.428436 776.029358,363.439667 
	C776.216980,349.855865 782.794128,343.275024 796.342896,343.030579 
	C802.333679,342.922455 808.344543,342.825470 814.319336,343.178741 
	C824.945007,343.807037 831.137024,349.992554 831.820557,360.592896 
	C832.162842,365.901001 831.892395,371.246002 832.032776,376.570801 
	C832.098877,379.077820 831.240234,380.261566 828.593445,380.184052 
	C824.600647,380.067078 820.597717,380.043182 816.606995,380.191895 
	C813.699890,380.300201 812.686829,378.983521 812.972900,375.818298 
z"/>
<path fill="#030303" opacity="1.000000" stroke="none" 
	d="
M564.036499,360.828278 
	C565.085327,355.861237 566.183533,351.332001 567.020691,346.755005 
	C567.534973,343.943451 568.899963,342.854156 571.774414,342.945557 
	C577.099609,343.114838 582.455261,342.731689 587.751099,343.160706 
	C589.266479,343.283478 591.583984,345.194641 591.906067,346.646729 
	C599.681763,381.707214 607.240112,416.815918 614.805847,451.922821 
	C614.968201,452.676086 614.757141,453.509857 614.688538,454.991058 
	C609.250793,454.991058 603.959778,455.204987 598.712646,454.820404 
	C597.590027,454.738098 596.032776,452.627502 595.693115,451.207855 
	C594.265015,445.240051 593.222839,439.179932 591.993652,432.920715 
	C583.746826,432.920715 575.660278,432.920715 567.043152,432.920715 
	C565.991882,438.645111 564.833862,444.473236 563.879700,450.334564 
	C563.351990,453.576294 562.161194,455.364594 558.400513,455.086853 
	C553.822693,454.748718 549.200928,455.006500 543.735107,455.006500 
	C550.607788,423.170197 557.291809,392.208069 564.036499,360.828278 
M585.850098,401.658691 
	C583.831299,390.897827 581.812561,380.136963 579.793762,369.376099 
	C579.586487,369.382355 579.379272,369.388611 579.171997,369.394897 
	C576.344971,384.851929 573.517883,400.308990 570.644348,416.020050 
	C576.813171,416.020050 582.385254,416.020050 588.057800,416.020050 
	C588.057800,415.266113 588.127625,414.772736 588.046875,414.305389 
	C587.367004,410.372406 586.659607,406.444183 585.850098,401.658691 
z"/>
<path fill="#030303" opacity="1.000000" stroke="none" 
	d="
M367.128265,343.580566 
	C371.289886,343.223450 375.107239,343.035492 378.925659,343.009247 
	C386.078247,342.960022 386.356812,343.388763 383.695648,349.790405 
	C377.643097,364.350311 371.679962,378.948761 365.450897,393.432831 
	C364.086182,396.606110 364.118225,399.199738 365.456848,402.348755 
	C372.079712,417.928497 378.491089,433.598358 384.942566,449.250641 
	C387.045471,454.352692 386.621307,454.944580 381.162537,455.006500 
	C367.068542,455.166351 367.078796,455.162262 361.885590,442.095612 
	C358.960144,434.734894 355.994202,427.390350 352.744781,419.286011 
	C348.345093,430.304047 344.150116,440.382019 340.335480,450.601959 
	C339.059540,454.020325 337.178314,455.304138 333.676819,455.050964 
	C330.695496,454.835449 327.686188,455.018463 324.689362,455.004028 
	C318.570862,454.974548 318.367462,454.714905 320.633453,449.183563 
	C326.925446,433.824799 333.141479,418.433167 339.643616,403.163574 
	C341.190338,399.531250 341.316956,396.494537 339.743378,392.828674 
	C333.458649,378.187500 327.458069,363.424194 321.381927,348.693817 
	C319.250824,343.527313 319.593597,343.055817 325.179688,342.993530 
	C338.951324,342.840057 338.940857,342.844116 344.006042,355.833191 
	C346.765839,362.910400 349.568085,369.971039 352.610260,377.697052 
	C357.499908,366.011505 362.142181,354.917084 367.128265,343.580566 
z"/>
<path fill="#010101" opacity="1.000000" stroke="none" 
	d="
M422.137451,361.692688 
	C421.124542,362.374359 420.151581,363.041077 420.143250,363.719604 
	C420.039307,372.197845 420.075195,380.677765 420.075195,389.791687 
	C429.750763,389.791687 439.132874,389.791687 449.042542,389.791687 
	C449.042542,395.382721 449.279938,400.365479 448.854065,405.290894 
	C448.762390,406.351044 446.301422,407.978943 444.889038,408.024719 
	C436.778748,408.287567 428.655609,408.152618 420.307739,408.152618 
	C420.307739,417.703339 420.307739,426.794159 420.307739,436.463806 
	C432.428528,436.463806 444.488617,436.463806 457.250793,436.463806 
	C457.250793,442.122345 457.416077,447.237976 457.103455,452.324219 
	C457.044952,453.276550 455.081451,454.874573 453.983978,454.885712 
	C437.658875,455.051758 421.331146,454.941376 405.005066,455.046814 
	C401.399475,455.070068 401.516663,452.857727 401.518066,450.429718 
	C401.525177,438.101318 401.520203,425.772919 401.520142,413.444519 
	C401.520050,391.786530 401.632812,370.127472 401.427673,348.471436 
	C401.385712,344.041473 402.723480,342.817047 407.109589,342.896179 
	C421.932159,343.163574 436.762543,342.998108 451.589935,342.998108 
	C453.224945,342.998108 454.859955,342.998108 457.225189,342.998108 
	C457.225189,348.733063 457.446869,354.017700 457.017700,359.248962 
	C456.941833,360.173737 454.164917,361.539856 452.611359,361.572815 
	C442.619873,361.784821 432.621674,361.682434 422.137451,361.692688 
z"/>
<path fill="#020202" opacity="1.000000" stroke="none" 
	d="
M214.829895,366.000000 
	C214.830322,359.334167 214.939758,353.165558 214.784653,347.003632 
	C214.708328,343.971497 215.802582,342.903381 218.851624,342.944977 
	C229.847992,343.095001 240.852280,342.835999 251.843887,343.114288 
	C263.340759,343.405396 269.836639,349.041656 270.420380,360.411469 
	C271.094208,373.535828 271.082855,386.744354 270.449402,399.871948 
	C269.904633,411.161987 263.825256,416.578949 252.490204,417.214478 
	C246.515778,417.549500 240.507080,417.273682 233.858749,417.273682 
	C233.858749,427.054077 233.885178,436.488953 233.851715,445.923615 
	C233.814514,456.410004 234.873413,454.932343 224.838440,454.991547 
	C214.830215,455.050598 214.829910,455.004547 214.829910,444.989563 
	C214.829880,418.826385 214.829895,392.663177 214.829895,366.000000 
M238.543381,398.995483 
	C240.202209,398.995453 241.861069,399.003174 243.519852,398.994080 
	C250.366608,398.956635 251.720215,397.664307 251.780594,390.962585 
	C251.823929,386.152344 251.818146,381.341248 251.783844,376.530884 
	C251.675308,361.308350 254.230087,360.739655 234.648941,361.713196 
	C234.502609,361.720490 234.363525,361.873505 233.861603,362.172913 
	C233.861603,373.541809 233.789551,385.130371 234.021393,396.712830 
	C234.037094,397.497131 236.340912,398.235626 238.543381,398.995483 
z"/>
<path fill="#030303" opacity="1.000000" stroke="none" 
	d="
M483.100647,455.006500 
	C481.450226,455.006470 480.269196,454.885925 479.120911,455.028748 
	C475.519287,455.476776 474.094360,454.182343 474.107239,450.342926 
	C474.221680,416.194702 474.211456,382.045868 474.117462,347.897522 
	C474.107635,344.327545 475.067139,342.927856 478.904968,342.907227 
	C493.219696,342.830353 493.218903,342.700592 493.218933,357.159821 
	C493.218933,383.307861 493.218994,409.455872 493.218994,436.221588 
	C495.095398,436.330872 496.830536,436.513092 498.566376,436.519348 
	C507.228333,436.550476 515.891663,436.619659 524.551880,436.492126 
	C527.707703,436.445648 528.899658,437.452209 528.976929,440.788544 
	C529.306091,455.008881 529.409363,455.006531 515.068420,455.006531 
	C504.573944,455.006531 494.079498,455.006500 483.100647,455.006500 
z"/>
<path fill="#060606" opacity="1.000000" stroke="none" 
	d="
M287.707092,453.260315 
	C287.591156,416.387238 287.591156,379.948975 287.591156,343.002380 
	C293.424377,343.002380 298.585419,342.730499 303.673981,343.216888 
	C304.777985,343.322388 306.436768,346.137726 306.458984,347.724304 
	C306.671204,362.885071 306.586578,378.050018 306.586639,393.213745 
	C306.586731,412.043427 306.485016,430.874115 306.665283,449.702057 
	C306.704803,453.829712 305.476959,455.565002 301.270416,455.038910 
	C296.801819,454.480072 292.306610,454.134094 287.707092,453.260315 
z"/>
<path fill="#FFFFFF" opacity="1.000000" stroke="none" 
	d="
M655.054993,361.458313 
	C668.005676,361.458801 668.005859,361.458801 668.005798,373.810303 
	C668.005676,392.140656 668.022888,410.471039 667.995361,428.801361 
	C667.985779,435.194305 666.784668,436.404755 660.456726,436.527557 
	C656.989868,436.594879 653.520630,436.539612 649.815674,436.539612 
	C649.815674,411.463226 649.815674,386.856720 649.815674,361.717529 
	C651.431396,361.629822 653.011108,361.544067 655.054993,361.458313 
z"/>
<path fill="#FFFFFF" opacity="1.000000" stroke="none" 
	d="
M741.125916,386.000122 
	C741.125732,400.813324 741.152710,415.126648 741.112854,429.439789 
	C741.095459,435.695557 739.810120,436.895050 733.436768,436.958710 
	C731.939026,436.973694 730.440369,436.988373 728.943237,436.955322 
	C723.351379,436.831848 721.947388,435.473358 721.936401,429.762634 
	C721.896912,409.291473 721.897461,388.820129 721.935669,368.348938 
	C721.946594,362.492126 723.407959,361.137970 729.366211,361.039215 
	C729.532593,361.036469 729.699036,361.039856 729.865479,361.038361 
	C740.874146,360.939117 741.125488,361.184174 741.125854,372.019135 
	C741.126038,376.512817 741.125916,381.006500 741.125916,386.000122 
z"/>
<path fill="#FFFFFF" opacity="1.000000" stroke="none" 
	d="
M585.905273,402.086609 
	C586.659607,406.444183 587.367004,410.372406 588.046875,414.305389 
	C588.127625,414.772736 588.057800,415.266113 588.057800,416.020050 
	C582.385254,416.020050 576.813171,416.020050 570.644348,416.020050 
	C573.517883,400.308990 576.344971,384.851929 579.171997,369.394897 
	C579.379272,369.388611 579.586487,369.382355 579.793762,369.376099 
	C581.812561,380.136963 583.831299,390.897827 585.905273,402.086609 
z"/>
<path fill="#FFFFFF" opacity="1.000000" stroke="none" 
	d="
M238.061981,398.995483 
	C236.340912,398.235626 234.037094,397.497131 234.021393,396.712830 
	C233.789551,385.130371 233.861603,373.541809 233.861603,362.172913 
	C234.363525,361.873505 234.502609,361.720490 234.648941,361.713196 
	C254.230087,360.739655 251.675308,361.308350 251.783844,376.530884 
	C251.818146,381.341248 251.823929,386.152344 251.780594,390.962585 
	C251.720215,397.664307 250.366608,398.956635 243.519852,398.994080 
	C241.861069,399.003174 240.202209,398.995453 238.061981,398.995483 
z"/>
</svg>